<svg width="106" height="94" viewBox="0 0 106 94" fill="none" xmlns="http://www.w3.org/2000/svg">
<rect width="106" height="94" fill="#1E1E1E"/>
<g id="&#208;&#146;&#209;&#130;&#208;&#190;&#209;&#128;&#208;&#176;&#209;&#143; &#209;&#129;&#209;&#130;&#209;&#128;&#208;&#176;&#208;&#189;&#208;&#184;&#209;&#134;&#208;&#176;/&#208;&#154;&#208;&#158;&#208;&#157;&#208;&#162;&#208;&#144;&#208;&#154;&#208;&#162;&#208;&#171;">
<rect width="1440" height="1024" transform="translate(-140 -902)" fill="#070707"/>
<g id="&#208;&#146;&#209;&#130;&#208;&#190;&#209;&#128;&#208;&#176;&#209;&#143; &#209;&#129;&#208;&#181;&#208;&#186;&#209;&#134;&#208;&#184;&#209;&#143;">
<g id="a">
<rect id="Rectangle 5" x="-140" y="-28" width="1440" height="150" fill="#D9D9D9"/>
</g>
<g id="LOGO">
<path id="Vector" d="M50.8396 0.106449C50.8545 1.13026 50.6758 6.73895 50.6013 7.6589L50.4971 8.90527H51.3906H52.284L52.3883 7.54019C52.433 6.7983 52.4776 5.77449 52.4776 5.25517C52.4776 4.45393 52.5223 4.29071 52.8052 4.09782C53.0584 3.91977 53.0882 3.86042 52.8946 3.86042C52.5372 3.86042 52.4776 3.54882 52.4776 1.87215C52.4776 0.892853 52.4181 0.29934 52.2989 0.180638C52.1053 -0.0122538 50.8396 -0.0716047 50.8396 0.106449Z" fill="black"/>
<path id="Vector_2" d="M55.2772 2.33215C55.2474 3.53402 55.2623 5.52228 55.307 6.75382L55.3815 8.97949H56.2005H57.0195V4.60234V0.225183L56.1707 0.180669L55.3219 0.136156L55.2772 2.33215Z" fill="black"/>
<path id="Vector_3" d="M38.8523 1.79801C37.9737 2.13928 37.7503 2.3025 37.3631 2.89601C36.9164 3.56371 36.961 5.59649 37.4674 7.34736C37.6758 8.07441 37.9737 9.21692 38.1226 9.86978C38.2715 10.5226 38.4353 11.1162 38.48 11.1755C38.6438 11.3536 43.0814 10.1517 43.9451 9.69173C44.9131 9.17241 44.9577 8.00022 44.0643 7.08027C43.5282 6.51644 42.6942 6.19001 41.354 5.99711C40.2074 5.8339 40.1627 5.7152 40.9966 4.83977C42.2624 3.48952 42.5304 2.5399 41.8305 1.85736C41.5178 1.54577 41.3391 1.48642 40.535 1.50126C39.9691 1.50126 39.299 1.61996 38.8523 1.79801ZM39.8351 1.97607C40.1627 2.22831 40.3712 2.65861 40.4903 3.35598C40.6988 4.64687 39.433 6.36806 38.8076 5.59649C38.614 5.35909 38.3311 3.99401 38.3311 3.32631C38.3311 2.52507 38.8225 1.79801 39.3735 1.79801C39.4926 1.79801 39.7011 1.8722 39.8351 1.97607ZM40.8477 6.3829C42.1879 7.06544 43.007 8.71243 42.4262 9.58787C42.1433 10.033 41.2945 10.4188 40.5797 10.4485L40.0734 10.4633L39.567 8.47503C39.299 7.37703 39.1054 6.3829 39.1352 6.27903C39.2543 5.99711 40.1925 6.04163 40.8477 6.3829Z" fill="black"/>
<path id="Vector_4" d="M65.8208 1.66481C65.791 1.76867 65.6719 2.18413 65.5825 2.59959C65.3145 3.68275 64.2125 6.8432 63.5871 8.3715C63.2893 9.08371 63.0659 9.75141 63.0808 9.8256C63.1403 9.97398 65.3443 10.7752 66.893 11.2055C68.8289 11.7397 69.7521 11.2945 69.7521 9.81077C69.7521 9.0392 69.5437 8.57923 68.68 7.48123C68.0247 6.63547 67.578 6.24969 66.8483 5.86391C66.4314 5.64134 66.4462 5.53748 67.4589 2.34734C67.5184 2.15445 67.3993 2.03575 67.027 1.88737C66.1037 1.50159 65.8804 1.45708 65.8208 1.66481ZM67.0419 6.41291C67.5184 6.93223 67.9652 8.01539 67.9652 8.68309C67.9652 9.4695 67.4738 10.4933 66.9972 10.7159C66.7143 10.8494 66.476 10.8346 65.9995 10.701C65.0911 10.434 64.9124 10.3153 64.9422 10.0037C64.9571 9.72174 66.0888 6.48709 66.2675 6.22001C66.4016 5.99745 66.7143 6.07164 67.0419 6.41291Z" fill="black"/>
<path id="Vector_5" d="M53.6692 4.15695C53.8776 4.21653 54.1755 4.27612 54.3393 4.27612L54.6371 4.29102L54.3393 4.15695C54.1755 4.08246 53.8776 4.03777 53.6692 4.03777H53.2969L53.6692 4.15695Z" fill="black"/>
<path id="Vector_6" d="M72.7605 4.48381C72.2244 5.87856 71.0777 9.12804 70.7501 10.2409C70.0949 12.3924 70.0949 12.2737 70.7352 12.5407C71.4798 12.8523 71.867 12.7781 72.001 12.3182C72.0457 12.1104 72.1797 11.6505 72.2839 11.2795C72.6413 9.9738 73.9667 6.0121 74.3092 5.25537L74.6517 4.48381L74.056 4.2464C73.1923 3.90513 72.969 3.94965 72.7605 4.48381Z" fill="black"/>
<path id="Vector_7" d="M27.8771 6.29335C27.2516 6.63462 27.192 6.88686 27.5494 7.40618C28.026 8.07388 27.6835 12.911 27.1623 12.911C27.0133 12.911 26.7155 12.4659 25.6731 10.715C25.3157 10.1215 24.8392 9.36477 24.6009 9.03834L24.184 8.45967L23.5139 8.7861C23.1565 8.97899 22.8438 9.18672 22.8438 9.26091C22.8438 9.32026 23.1416 9.82475 23.499 10.3737C24.05 11.1898 26.9091 16.3831 27.058 16.8282C27.1176 17.0062 27.8324 16.7243 28.3387 16.3385L28.6812 16.0715L28.1898 15.1218C27.6388 14.0832 27.5792 13.371 27.8175 10.9821C27.9664 9.43896 28.026 9.20156 28.2791 9.20156C28.5174 9.20156 28.5025 9.17188 30.0065 11.7537C30.6022 12.7923 31.2425 13.831 31.4063 14.0387L31.719 14.4393L32.4189 14.0387C32.8061 13.8013 33.1188 13.5936 33.1188 13.549C33.1188 13.5045 32.821 13.0149 32.4785 12.4807C31.451 10.9227 29.9916 8.48934 29.3215 7.21329C28.9939 6.56043 28.6514 6.01143 28.5769 5.99659C28.4876 5.98175 28.1749 6.11529 27.8771 6.29335Z" fill="black"/>
<path id="Vector_8" d="M85.2538 8.40013C84.5837 9.86956 86.0282 11.2054 87.4727 10.4633C88.0832 10.1516 88.0385 10.0031 87.2642 9.81019C86.609 9.64692 85.6857 8.81573 85.6857 8.38529C85.6857 8.01422 85.4325 8.01422 85.2538 8.40013Z" fill="black"/>
<path id="Vector_9" d="M81.6801 10.0479C80.8015 11.3091 78.8358 13.7573 77.7636 14.9295C77.3615 15.345 77.0488 15.7604 77.0488 15.8495C77.0488 15.9385 77.3318 16.2056 77.6892 16.4726L78.3146 16.9326L79.1336 16.0423C79.774 15.345 80.1611 15.0779 80.8461 14.8108C81.695 14.4844 81.7098 14.4695 81.2631 14.425C80.9951 14.3954 80.7717 14.2915 80.7717 14.1876C80.7717 14.0986 81.2035 13.4754 81.7098 12.8374C82.7671 11.5168 83.75 10.1221 83.75 9.94401C83.75 9.84014 83.0352 9.26147 82.6182 9.00922C82.5289 8.96471 82.1119 9.40985 81.6801 10.0479Z" fill="black"/>
<path id="Vector_10" d="M85.8942 12.7336C85.3134 13.253 84.822 13.4607 82.9308 13.9652C82.6032 14.0542 82.2011 14.1878 82.0373 14.2471C81.7543 14.3658 81.7543 14.3806 82.0522 14.3806C82.2309 14.3955 82.6329 14.3065 82.9605 14.1878C83.7647 13.9058 84.5241 13.8316 84.5986 14.0394C84.6284 14.1284 83.854 15.2561 82.8712 16.547C81.7543 18.0011 81.114 18.9507 81.1885 19.0694C81.3672 19.381 82.2458 20.0635 82.3947 20.0042C82.4691 19.9893 83.0797 19.1881 83.7647 18.2533C84.4348 17.3185 85.4921 15.9238 86.1175 15.1522C86.743 14.3955 87.3833 13.6091 87.5471 13.4013L87.8449 13.0452L87.3237 12.6149C87.0408 12.3775 86.743 12.1846 86.6536 12.1846C86.5792 12.1846 86.2218 12.4369 85.8942 12.7336Z" fill="black"/>
<path id="Vector_11" d="M15.6808 15.0633C15.4723 15.3304 14.8767 16.0277 14.3703 16.6064C13.864 17.1702 13.2237 17.8973 12.9706 18.2237C12.7025 18.5502 12.0026 19.3514 11.407 20.0339C10.7964 20.7016 10.3646 21.31 10.439 21.3694C10.4986 21.4287 10.99 21.6513 11.5112 21.859L12.4494 22.2448L12.3451 21.8442C12.1069 20.9094 12.092 19.8707 12.3302 19.3811C12.4642 19.0992 12.6578 18.8469 12.7621 18.8024C12.9854 18.7134 13.8045 19.3217 15.1596 20.5829C15.6659 21.0578 16.4105 21.7403 16.8274 22.0964C17.2295 22.4377 17.9294 23.0905 18.4059 23.5357C18.8676 23.9808 19.3143 24.3369 19.3888 24.3369C19.5675 24.3369 20.4609 23.2538 20.4609 23.0312C20.4609 22.9422 20.178 22.6602 19.8355 22.3932C17.3784 20.4939 14.0427 17.5857 14.0874 17.3928C14.1172 17.2593 14.3703 16.9922 14.6533 16.7993C15.1149 16.4877 15.2936 16.458 16.3211 16.5025L17.4678 16.5767L17.0806 15.8942C16.4403 14.7814 16.2913 14.544 16.1722 14.544C16.1126 14.5588 15.8893 14.7814 15.6808 15.0633Z" fill="black"/>
<path id="Vector_12" d="M45.955 22.0369C45.7316 22.2891 45.4785 22.4078 45.136 22.4078C44.0787 22.4078 42.798 23.7432 42.4853 25.1825C42.247 26.3102 42.0534 26.6663 41.2642 27.4972C40.4154 28.4023 40.0878 28.4023 39.7155 27.4824C39.1645 26.1915 38.0923 25.2419 37.3924 25.4644C36.0075 25.8799 35.5161 28.0907 35.8884 32.3789C36.0075 33.833 36.1267 35.3019 36.1416 35.6432L36.1713 36.2812L35.5757 36.296C35.2481 36.3109 34.8609 36.3702 34.7269 36.4296C34.4588 36.5334 33.2675 35.9696 33.2675 35.7322C33.2675 35.6729 33.2079 35.6135 33.1186 35.6135C33.0441 35.6135 32.0464 34.9606 30.8998 34.1594C26.2685 30.9396 23.8115 29.3223 23.469 29.2629C22.6053 29.0997 23.4094 29.7674 27.0876 32.275C28.1598 33.002 29.5 33.922 30.0659 34.3226C30.6466 34.7232 31.7635 35.48 32.5527 36.029C33.7738 36.8599 34.027 37.0973 34.2355 37.6314C34.4737 38.2398 34.9502 38.7294 36.2309 39.6939C37.4967 40.6435 37.3627 41.3112 35.9182 41.2815C35.4863 41.2815 34.8609 41.2222 34.5184 41.1777C33.8781 41.059 33.1782 41.2964 33.342 41.5635C33.4015 41.6377 33.8036 41.697 34.2503 41.697C35.0694 41.697 37.3924 42.1867 37.9583 42.4834C38.4944 42.7653 39.373 43.5517 39.373 43.7595C39.373 43.9969 39.1794 43.9524 37.4371 43.344C36.1118 42.884 34.027 42.5279 33.0292 42.617C32.4634 42.6615 32.4485 42.6615 32.0762 43.7743C31.5252 45.3619 31.1231 46.0593 30.3488 46.8161C29.5893 47.5431 27.9364 48.285 27.2216 48.196C26.8195 48.1515 26.7897 48.1069 26.7897 47.5728V46.9941L27.713 46.7419C29.2468 46.3264 29.9169 45.7477 30.6764 44.1156C31.3316 42.7357 31.3316 42.4389 30.7062 42.4389C30.1403 42.4389 28.0555 42.9434 27.5641 43.1956C26.8046 43.5814 25.8367 44.3233 25.5686 44.7091C25.241 45.2284 24.6454 45.5548 24.0348 45.5548C23.5583 45.5548 22.6946 45.9258 22.6946 46.1187C22.6946 46.178 22.4266 46.5786 22.0989 47.0238C21.7713 47.4541 21.4437 48.0624 21.3544 48.374C21.265 48.7005 21.131 50.481 21.0565 52.3357C20.9672 54.1904 20.8332 55.9858 20.7438 56.3123C20.6545 56.6387 20.5502 58.4489 20.5056 60.3481C20.4162 64.1169 20.4758 64.5472 21.1906 64.8885C21.548 65.0517 21.5777 65.1408 21.6224 66.1794C21.6671 67.4703 21.3693 68.9244 20.7587 70.2895C20.5205 70.794 20.3715 71.2391 20.4311 71.2836C20.7736 71.6397 21.9649 71.0017 22.8137 70.0224C23.0967 69.696 23.3796 69.4734 23.4541 69.5327C23.5285 69.5773 23.5881 70.0521 23.5881 70.5862C23.5881 71.3726 23.5136 71.6991 23.2009 72.2184C22.9924 72.5893 22.8584 72.9158 22.8882 72.9603C23.0222 73.079 24.2433 72.1887 24.7496 71.5952C25.6282 70.6159 26.2388 69.0876 26.5664 67.1439C26.8493 65.482 26.9238 65.2149 27.2216 65.1704C27.8321 65.0517 27.8321 65.3782 27.1471 68.7018C26.8642 70.0966 26.5366 72.6784 26.5068 73.6131C26.477 75.0227 26.7004 75.2305 28.1746 75.2305C29.9914 75.2305 32.2251 74.5034 32.2251 73.9099C32.2251 73.5538 31.7635 73.1532 31.3614 73.1532C30.5573 73.1532 30.0956 71.1501 30.0956 67.6335C30.0956 65.1704 30.0956 65.1408 30.4977 64.5324C31.0636 63.7015 31.3316 62.8706 31.3316 61.9951C31.3316 61.1197 31.4805 60.823 32.8654 58.894C33.4611 58.078 34.161 57.0838 34.429 56.7129C35.397 55.3478 35.4417 55.333 36.5436 55.5704C37.0797 55.6891 38.3604 55.9116 39.4028 56.0452C41.1897 56.2826 41.3982 56.2826 43.349 56.0452C44.4808 55.8968 45.4785 55.7929 45.5678 55.7929C45.7316 55.7929 45.9699 58.0186 45.9401 59.354C45.8805 62.2771 45.7912 63.1673 45.27 65.5117C44.9722 66.8916 44.6148 68.2864 44.4808 68.598C44.2574 69.1173 44.2574 69.1618 44.5105 69.4437C44.6446 69.5921 45.136 69.8147 45.5976 69.9037C46.3422 70.0817 46.506 70.0669 47.3101 69.7702C47.8015 69.5921 48.2632 69.4882 48.3376 69.5476C48.427 69.5921 48.4568 69.9334 48.4121 70.2895C48.3525 70.8533 48.3972 71.0017 48.7397 71.3133C49.3354 71.892 50.1693 72.2629 50.8245 72.2629C51.5244 72.2629 53.5198 71.5655 53.6241 71.2688C53.773 70.8682 53.5198 70.3933 53.0284 70.1559C52.4477 69.8889 52.4774 69.963 52.1647 66.7284C52.0009 65.0072 52.0009 64.7846 52.2243 64.3989C52.3583 64.1763 52.4774 63.8944 52.4774 63.7905C52.4774 63.7015 52.6413 63.2712 52.8497 62.8557C53.1178 62.2919 53.2369 61.7429 53.3114 60.7636C53.4007 59.3243 53.9517 57.4103 54.4133 56.9058C54.5622 56.7425 54.8303 56.3123 55.0239 55.9413C55.7536 54.4872 56.5875 53.2557 56.9002 53.1815C57.2427 53.0924 57.9128 53.4486 58.0468 53.7898C58.0915 53.9234 57.8979 54.1014 57.481 54.3091C56.7811 54.6356 56.5428 55.051 56.1258 56.609C55.8131 57.7812 55.56 58.2412 54.7409 59.0869C54.1751 59.6656 54.1006 59.7991 54.3091 59.8882C54.458 59.9327 54.8005 59.9327 55.0834 59.8882C55.6344 59.7843 55.7536 59.9327 55.3813 60.2443C54.7558 60.7636 54.5325 61.3126 54.3389 62.8112C54.2048 63.835 54.0262 64.5324 53.8177 64.8885C53.4007 65.5859 53.6688 65.6304 54.4431 64.9924C55.0388 64.5027 55.6046 63.5976 55.9025 62.6925C56.0961 62.1138 56.0961 62.1138 56.245 62.4699C56.6619 63.5679 56.8555 63.9537 56.9747 63.9537C57.0342 63.9537 57.0938 63.5679 57.0938 63.0931C57.0938 62.3661 57.1682 62.1287 57.5405 61.6242C57.8235 61.2384 58.0468 60.7042 58.1362 60.2146C58.1958 59.7843 58.3 59.3095 58.3596 59.1611C58.5383 58.716 58.7318 58.894 58.7318 59.5172C58.7318 60.1256 58.8956 60.5707 59.2977 61.0307C59.5211 61.2829 59.536 61.2681 59.7296 60.823C59.8338 60.5707 59.9232 59.9772 59.9232 59.5024C59.9232 58.3895 60.0423 58.1225 60.9358 57.1283L61.6655 56.3271L62.693 57.0245C66.0882 59.354 66.7434 59.8437 67.1604 60.3185C67.4135 60.6004 67.7412 60.8378 67.8752 60.8378C68.0092 60.8378 68.3964 61.09 68.7538 61.4165C69.3196 61.9209 70.4216 62.4551 70.5854 62.2919C70.7492 62.1138 69.6919 60.9862 69.1261 60.7636C68.7836 60.6301 68.2772 60.3185 68.0092 60.0811C67.7263 59.8437 67.4284 59.6508 67.3391 59.6508C67.2497 59.6508 66.7881 59.3243 66.3265 58.9089C65.8499 58.5083 64.882 57.7812 64.1523 57.2915C63.4226 56.8167 62.693 56.2677 62.544 56.1045C62.2611 55.7929 62.2611 55.7781 62.7376 55.2884C63.1546 54.8581 63.1993 54.7394 63.0652 54.4872C62.9759 54.324 62.6483 54.1014 62.3505 54.0124C62.0377 53.9085 61.6655 53.7305 61.5314 53.5969C61.2187 53.3299 61.174 52.5583 61.4719 52.4396C61.7399 52.3357 63.0355 52.9886 63.4077 53.404C63.7949 53.8195 64.2119 53.7898 64.7182 53.315C65.3139 52.7512 65.5223 53.0034 65.2841 53.9827C65.0607 54.7988 64.9416 54.9917 64.331 55.4665L63.8992 55.7929H64.2715C64.8224 55.7929 65.6117 55.4962 66.0137 55.1401C66.1924 54.9769 66.5647 54.4279 66.803 53.9382C67.0561 53.4486 67.4135 52.855 67.6071 52.6325C67.8007 52.3951 67.9645 52.1132 67.9645 51.9796C67.9645 51.8609 68.1283 51.6235 68.3219 51.4751C68.6644 51.208 69.0367 50.4068 69.2154 49.5462C69.275 49.3088 69.4239 49.1159 69.6324 49.0714L69.96 48.9824L69.6175 48.6114C69.4239 48.4185 69.3196 48.1811 69.3792 48.0773C69.4686 47.9289 68.9176 47.3502 68.6793 47.3354C68.6197 47.3354 68.3964 47.4986 68.173 47.7063C67.756 48.0921 67.22 48.1515 67.1157 47.825C67.071 47.7212 67.3242 47.3502 67.6518 46.9941C68.3666 46.2374 68.3964 45.9851 67.905 45.0652C67.3242 43.982 64.8671 41.3261 63.646 40.4506C62.3356 39.5158 59.3722 38.4475 58.1213 38.4327C57.8979 38.4327 57.5703 38.314 57.3767 38.1508C56.4088 37.4089 55.4557 37.2011 54.6069 37.5721C54.3835 37.676 53.6985 38.0766 53.088 38.4624C52.4923 38.863 51.8818 39.1746 51.7478 39.1746C51.6137 39.1597 51.3755 38.8927 51.2117 38.5366C50.7947 37.6463 50.3926 37.6314 49.797 38.492C49.3502 39.1597 49.3354 39.1746 48.9631 38.9372C48.427 38.5811 48.0398 37.1121 47.7866 34.3671C47.6675 33.0614 47.5633 31.726 47.5633 31.3847C47.5633 30.8951 47.4293 30.5686 47.0272 29.9751C46.6102 29.3668 46.5209 29.1145 46.5953 28.8178C46.6549 28.5952 46.7145 28.0611 46.7442 27.6159C46.774 27.1856 46.8634 26.7553 46.9527 26.6663C47.0421 26.5773 47.1165 26.3844 47.1165 26.236C47.1165 26.0876 47.2803 25.8651 47.4888 25.7315C47.8313 25.5089 47.8611 25.4199 47.8462 24.3516C47.8313 23.7284 47.7866 23.4168 47.7569 23.6691C47.6526 24.3516 47.459 24.4258 47.2208 23.8768C47.1016 23.5949 46.8336 23.1497 46.5953 22.8827C46.3124 22.5414 46.2082 22.2891 46.2528 22.0369C46.3422 21.5769 46.3571 21.5769 45.955 22.0369ZM37.8094 27.0966C38.5093 27.3637 39.4772 29.6339 39.8942 31.904C40.2665 34.0704 40.1325 37.0973 39.641 37.0973C39.5368 37.0973 39.5219 36.6373 39.5964 35.6432C39.6857 34.2039 39.4326 31.8299 39.0454 30.5686C38.4646 28.7436 38.2264 28.2539 37.7052 27.7346C37.3924 27.4379 37.1393 27.1559 37.1393 27.0966C37.1393 26.9779 37.4967 26.9779 37.8094 27.0966ZM47.0868 37.0083C47.6228 37.6314 48.9631 41.5041 48.8142 42.068C48.6801 42.6021 47.9058 43.2105 47.4293 43.1511C47.1165 43.1214 46.9229 42.8989 46.4315 41.9938C46.1039 41.3854 45.5529 40.3764 45.2104 39.7533C44.5254 38.5217 44.4212 37.8392 44.8084 37.0973C45.0615 36.5928 45.2104 36.5334 46.0146 36.5186C46.5507 36.5038 46.6996 36.578 47.0868 37.0083ZM39.5219 38.4179C40.3558 38.6701 41.1897 38.952 41.3684 39.0856C41.562 39.2043 41.8896 39.6642 42.113 40.0945C42.5151 40.8958 42.664 41.0441 43.6915 41.7267C44.0787 41.9938 44.2276 42.2015 44.2574 42.5576C44.3318 43.255 43.9447 43.1808 42.6789 42.246C42.0981 41.8305 40.6834 40.8216 39.5219 40.0055C37.3329 38.4772 37.2137 38.3733 37.3627 38.1359C37.5116 37.8985 37.8839 37.9579 39.5219 38.4179ZM53.4454 40.5545C55.4855 42.0086 56.6173 43.0621 56.796 43.6853C56.8853 43.9969 56.93 44.2788 56.8853 44.3233C56.8555 44.3678 56.3045 43.8633 55.6642 43.1956C55.0388 42.5428 53.8921 41.5635 53.1327 41.0145C51.7775 40.0648 51.6286 39.9165 51.8222 39.7236C51.9711 39.59 52.3434 39.7829 53.4454 40.5545ZM50.0948 44.0117C50.1842 44.2194 50.2437 44.7091 50.2437 45.0949C50.2437 45.9555 50.3331 46.0742 50.8096 45.7626C51.1223 45.5548 51.2712 45.54 51.7924 45.7032C52.7604 45.9851 53.5198 46.4303 53.6837 46.8012C53.8475 47.1425 53.7134 47.4838 53.0731 48.4779C52.7008 49.0566 52.1945 48.8785 50.8692 47.7508C50.4671 47.4096 50.3182 47.3502 50.1544 47.4986C49.9012 47.7063 49.8863 48.0179 50.1395 48.1218C50.2288 48.1515 50.7351 48.5076 51.2563 48.8933C52.3136 49.6946 52.3732 49.8875 51.7924 50.8965C51.3606 51.6235 51.301 52.4544 51.6286 52.7809C51.7329 52.8847 52.1945 53.0183 52.6413 53.0776C54.1006 53.226 54.5325 54.0569 53.6092 54.873C52.9689 55.4368 52.1052 55.6 51.3755 55.2884C50.8692 55.0807 50.8394 55.0807 50.6309 55.3775C50.4373 55.6446 50.4373 55.7336 50.616 56.0007C50.7798 56.2529 50.7947 56.7574 50.7054 58.4786C50.6458 59.6656 50.5416 60.7191 50.482 60.8081C50.4224 60.912 50.3778 61.5648 50.3778 62.2919C50.3778 63.0041 50.2884 63.8795 50.1842 64.2505C50.0799 64.6214 49.8268 65.5562 49.6481 66.3278C49.246 68.0045 48.8588 68.7315 48.4121 68.6722C47.9505 68.6128 47.8313 67.9303 47.8462 65.1111C47.8462 62.8112 47.876 62.5886 48.2185 61.7429C48.4717 61.1791 48.6057 60.5559 48.6057 60.0662C48.6206 59.6359 48.7099 58.7457 48.829 58.0928C49.1269 56.5051 49.112 55.9413 48.8142 55.9413C48.695 55.9413 48.3823 55.7484 48.1589 55.511L47.7271 55.0807L47.7866 52.6325C47.8462 50.3029 47.876 50.1546 48.2334 49.6204C48.4419 49.3236 48.6801 48.8192 48.7844 48.4927C48.9333 47.9882 48.9184 47.8992 48.6652 47.7063C48.5163 47.5876 48.293 47.4838 48.1887 47.4838C47.4441 47.4689 46.9378 46.4154 47.5782 46.2522C47.8611 46.178 47.8909 46.089 47.8164 45.5994C47.6675 44.6646 47.8015 44.442 48.7993 44.0414C49.9757 43.5517 49.931 43.5666 50.0948 44.0117ZM60.2359 47.8992C60.9209 48.9675 61.6803 50.4365 61.7399 50.8223C61.7697 51.03 61.6952 51.119 61.5016 51.119C61.3229 51.119 61.0251 50.8074 60.6528 50.1842C60.3401 49.6798 59.8487 48.8637 59.5509 48.3889C59.0892 47.6618 59.0297 47.4541 59.1637 47.2018C59.402 46.7715 59.6253 46.9199 60.2359 47.8992ZM29.1128 56.8316L29.4106 57.796L29.0979 58.9089C28.8596 59.725 28.6214 60.1998 28.2044 60.6597C27.5194 61.4165 27.2365 61.3719 27.3556 60.5262C27.4003 60.1256 27.579 59.7991 27.9066 59.5024C28.3682 59.0721 28.3831 59.0127 28.3087 58.2412C28.264 57.796 28.0853 56.9651 27.8917 56.4013C27.713 55.8226 27.6088 55.2439 27.6683 55.1104C27.7577 54.8878 27.847 54.9175 28.2938 55.3626C28.6512 55.7039 28.9043 56.1639 29.1128 56.8316Z" fill="black"/>
<path id="Vector_13" d="M98.4176 27.5122C97.7326 27.9722 93.7268 29.9753 92.0291 30.7023C91.3739 30.9842 91.3144 31.0436 91.4037 31.3997C91.5526 31.9487 91.9398 32.4977 92.1781 32.4977C92.2972 32.4977 93.1311 32.1267 94.0246 31.6816C94.9181 31.2365 95.7967 30.8655 95.9605 30.8655C96.9582 30.8655 95.201 33.7441 93.7565 34.486C93.4885 34.6195 93.28 34.8421 93.28 34.9904C93.28 35.3911 93.9352 36.4149 94.2033 36.4742C94.6054 36.5484 95.7669 35.3614 96.2583 34.3673C96.5859 33.6996 96.7348 33.1357 96.8093 32.2009L96.9284 30.9397L97.5539 30.8952C97.9559 30.8655 98.4473 30.9546 98.8792 31.1475C99.4451 31.3997 99.6089 31.5629 99.8769 32.2009C100.219 33.017 100.353 33.0615 101.336 32.7648C101.798 32.6312 101.917 32.5274 101.917 32.2603C101.917 31.6965 101.604 31.1771 101.038 30.821C100.562 30.5391 100.294 30.4946 98.8047 30.4946C97.6879 30.4946 97.0773 30.4352 97.0475 30.3314C97.0178 30.2423 97.5539 29.8714 98.224 29.5301C99.996 28.625 100.041 28.5805 99.6833 27.9128C99.177 26.9632 99.2068 26.978 98.4176 27.5122Z" fill="black"/>
<path id="Vector_14" d="M5.92716 28.5212C5.3464 29.2185 4.8252 30.4798 4.8252 31.192C4.8252 32.6906 6.06118 34.026 8.35446 35.0201C9.1586 35.3614 10.2457 35.8362 10.7669 36.0736C11.2881 36.311 11.7944 36.5039 11.8837 36.5039C12.0475 36.5039 12.7176 35.3169 12.7176 35.035C12.7176 34.9608 12.2262 34.7085 11.6455 34.5008C11.0498 34.2782 10.4988 34.026 10.4244 33.9666C10.335 33.8925 10.1712 33.8331 10.0223 33.8331C9.88828 33.8331 9.60534 33.6699 9.38197 33.4622C9.1586 33.2544 8.90545 33.1209 8.83099 33.1802C8.75653 33.2247 8.30979 33.0912 7.83326 32.8686C5.80803 31.9487 4.89965 30.9842 5.30172 30.1533C5.83781 29.0553 7.86305 29.9604 8.69697 31.6668C8.87566 32.0377 9.05436 32.3493 9.09903 32.3493C9.36708 32.3493 8.60762 29.2927 8.20555 28.7882C7.52054 27.9128 6.53771 27.8089 5.92716 28.5212Z" fill="black"/>
<path id="Vector_15" d="M80.8761 37.3348C79.6252 38.6109 78.7168 39.8573 78.7019 40.3172C78.687 40.4063 78.3445 41.1927 77.9425 42.0533C76.3491 45.4066 74.994 49.3386 74.9642 50.6147C74.9642 50.8224 74.8302 51.1192 74.6664 51.2675C74.1749 51.7127 73.7431 53.3152 73.3261 56.3866C73.0581 58.3749 73.0134 58.4639 72.2837 58.8645C71.0477 59.547 70.8542 59.8586 71.3754 60.378C71.5541 60.556 72.0455 60.7044 72.8198 60.8083C76.0215 61.2534 76.7809 61.3127 77.3766 61.2089C78.0318 61.0902 78.5083 61.0753 81.9632 61.1495C83.9735 61.194 83.9735 61.194 84.9414 60.7044C85.4775 60.4373 86.1328 60.1109 86.4157 59.9773C86.6837 59.829 86.9965 59.5916 87.1007 59.4283C87.2198 59.2651 87.3687 58.3452 87.4432 57.3807C87.5772 55.8969 87.6517 55.5705 87.9644 55.155C88.158 54.888 88.3963 54.4428 88.4856 54.1609C88.7685 53.3003 88.9323 49.7838 88.7983 47.7065C88.7388 46.6381 88.6792 44.9021 88.6643 43.8338C88.6643 42.4984 88.5898 41.6823 88.4409 41.2372C88.024 40.0502 87.4432 39.0412 86.8922 38.5515C85.4478 37.2903 85.1499 37.0974 84.5989 37.0974C84.4054 37.0974 84.1224 36.9639 83.9586 36.7858C83.6608 36.4594 82.6928 35.9104 82.4099 35.9104C82.3206 35.9104 81.6207 36.5484 80.8761 37.3348ZM81.7994 37.7503C81.9334 37.8987 81.9185 37.9729 81.7398 38.047C81.4271 38.1509 81.0697 38.0025 81.0697 37.7503C81.0697 37.4832 81.576 37.4832 81.7994 37.7503ZM83.8097 37.78C84.0926 38.0619 84.1075 38.3141 83.8693 38.5515C83.7352 38.6851 83.8395 38.7296 84.3607 38.7296C85.0308 38.7296 85.3882 38.9225 85.3882 39.2637C85.3882 39.5457 84.0926 40.1095 83.6906 40.0056C83.3034 39.9166 83.08 39.3676 83.3183 39.0857C83.4672 38.8928 83.1991 38.7296 82.7226 38.7296C82.2163 38.7296 82.0972 38.418 82.4248 37.958C82.7673 37.4832 83.4225 37.3942 83.8097 37.78ZM86.2519 39.7979C86.505 40.0502 86.4753 40.5101 86.1923 40.614C85.8796 40.7327 85.3137 40.1689 85.4329 39.8573C85.5371 39.5753 85.9987 39.5457 86.2519 39.7979ZM86.5497 45.5698C86.5944 48.1219 86.4902 48.7599 85.82 49.5909L85.3733 50.1547L85.6413 51.1043C85.8945 52.0688 85.8945 52.0688 85.5222 52.8552C85.3286 53.2706 85.001 53.8196 84.8074 54.057C84.4649 54.4725 84.45 54.5022 84.7032 54.9028C84.9414 55.3034 84.9266 55.3628 84.6436 55.8673C84.2713 56.5201 84.2267 57.8407 84.5692 57.9594C84.7032 58.0187 84.9414 57.9 85.1648 57.6626C85.6562 57.1285 85.8945 57.2917 85.7903 58.1226C85.7009 58.9239 85.5967 59.0426 85.3286 58.6716C85.1201 58.4045 85.1052 58.4045 84.6883 58.7755C84.3458 59.1019 84.0777 59.1909 83.2289 59.2651C82.6631 59.3096 82.0972 59.2948 81.9929 59.2206C81.7547 59.0722 81.71 58.6123 81.8589 57.8407C81.9483 57.4401 81.9185 57.2472 81.7398 57.0691C81.5164 56.8614 81.4569 56.8614 80.9505 57.1136C80.6527 57.2769 80.0422 57.6626 79.5954 58.0039C78.7466 58.6419 78.0169 58.8942 77.7489 58.6271C77.6446 58.5232 77.6893 58.2265 77.9127 57.6478C78.2999 56.6388 78.3148 56.3866 77.9871 56.3866C77.5851 56.3866 76.7512 57.1136 76.7512 57.4697C76.7363 58.3897 75.679 59.6509 74.9046 59.6509C74.577 59.6509 74.6068 59.3838 75.0386 58.6864C75.396 58.1226 75.545 57.1285 75.2918 57.1285C75.2173 57.1285 75.0089 57.2917 74.8153 57.4994C74.1898 58.1523 73.9962 58.0039 73.8324 56.713C73.6984 55.8227 73.7133 55.4666 73.8622 55.0809C73.9665 54.8286 74.1154 54.606 74.2047 54.606C74.2792 54.606 74.5323 54.888 74.7706 55.2292C75.396 56.164 75.8279 56.164 76.7214 55.2441C77.1086 54.8583 77.6744 54.2351 77.9723 53.8642C79.0295 52.5584 79.789 52.4991 80.2953 53.6861C80.7272 54.6951 80.9059 54.7989 81.844 54.6802C82.7822 54.5615 83.4523 54.2648 83.899 53.79C84.2118 53.4635 84.2118 53.419 83.9884 53.0926C83.6608 52.6178 83.6906 52.1578 84.0926 51.8907C84.3756 51.6978 84.3905 51.6236 84.2267 51.3862C83.6906 50.5998 83.6757 50.4663 84.1075 50.0212C84.3607 49.7689 84.5543 49.3831 84.5692 49.0864C84.5989 48.8193 84.6287 48.5522 84.6287 48.5077C84.6436 48.4484 84.8223 48.3593 85.0308 48.3148C85.6562 48.1516 85.9838 47.2317 85.9838 45.5401C85.9838 43.8931 86.103 43.1513 86.3412 43.2254C86.4455 43.2551 86.5199 44.0564 86.5497 45.5698Z" fill="black"/>
<path id="Vector_16" d="M3.41042 41.1927C3.17215 41.3262 2.62117 41.7417 2.20421 42.1275C1.78725 42.4984 1.23627 42.9732 0.953331 43.181L0.461914 43.5519L0.759742 44.2196C1.40007 45.644 3.02324 46.8904 4.92934 47.4246C6.10576 47.751 6.77588 47.5581 7.96719 46.5491C8.4735 46.1189 9.09894 45.6144 9.38188 45.4215C9.97753 45.006 9.99242 44.8576 9.57546 44.0416C9.09894 43.1216 7.78849 41.8901 6.80566 41.4449C5.6888 40.9553 4.06564 40.8366 3.41042 41.1927ZM7.34175 42.4984C8.14589 42.721 8.69687 43.0919 8.69687 43.4184C8.69687 43.6855 6.62696 45.4066 5.89728 45.7182C4.73575 46.2227 2.7403 46.0743 1.96595 45.4363C1.56388 45.1099 1.63834 44.9467 2.53182 44.2493C3.97629 43.1216 4.92934 42.5875 5.74837 42.4539C6.18022 42.3797 6.53761 42.3204 6.53761 42.3055C6.53761 42.3055 6.89501 42.3946 7.34175 42.4984Z" fill="black"/>
<path id="Vector_17" d="M96.05 41.2813C95.6479 41.4296 95.633 41.4741 95.7224 42.1122C95.767 42.498 95.8713 42.8541 95.9457 42.9282C96.0053 42.9876 96.5861 42.8689 97.2413 42.6463C98.2241 42.3051 98.6858 42.2457 100.056 42.2457C101.664 42.2309 103.168 42.4683 103.347 42.765C103.54 43.0618 102.84 43.4624 100.726 44.2637C97.4796 45.4804 96.5563 45.9552 96.5563 46.3558C96.5563 47.0235 96.7499 47.6318 96.9435 47.6318C97.0626 47.6318 97.5093 47.4389 97.9412 47.2015C98.3582 46.9641 99.6835 46.3855 100.875 45.9255C104.687 44.4565 105.193 44.1746 105.089 43.5069C104.91 42.3941 104.925 42.4089 104.315 42.5128C103.868 42.587 103.496 42.498 102.468 42.0825C101.768 41.7857 100.771 41.4445 100.249 41.3258C99.1772 41.0735 96.6903 41.0438 96.05 41.2813Z" fill="black"/>
<path id="Vector_18" d="M30.4534 41.4146C30.1854 41.5037 29.9918 41.5927 30.0216 41.6373C30.1407 41.7412 31.0342 41.5185 31.0342 41.3849C31.0342 41.3107 31.0193 41.2514 31.0044 41.2662C30.9746 41.2662 30.7364 41.3404 30.4534 41.4146Z" fill="black"/>
<path id="Vector_19" d="M104.449 53.4932C102.513 53.9829 101.128 54.1906 98.9841 54.2648C96.8248 54.3538 96.8546 54.339 96.8546 55.437C96.8546 55.6892 96.7653 55.9712 96.6759 56.0453C96.5419 56.1492 95.7824 56.1047 94.472 55.9266C93.37 55.7931 92.417 55.7189 92.3574 55.7783C92.2532 55.8673 92.5361 56.8763 92.7148 57.0543C92.7595 57.1137 93.2062 57.0395 93.6976 56.9208C94.74 56.6389 97.763 56.6092 98.9692 56.8466C100.19 57.084 101.605 57.5736 102.558 58.0633C103.586 58.5975 103.928 59.1168 103.779 59.9477L103.69 60.5115L104.449 60.7638C105.402 61.0754 105.641 60.927 105.641 60.0219C105.641 59.458 105.566 59.3245 105.09 58.9239C103.943 57.9743 101.799 57.2324 97.5694 56.3273C96.661 56.1195 97.2567 55.9712 99.2819 55.8673C101.531 55.7634 104.449 55.437 105.372 55.1848C105.983 55.0364 105.953 55.0957 105.998 53.5378C106.013 53.3597 105.953 53.2113 105.864 53.1965C105.789 53.1816 105.149 53.3152 104.449 53.4932Z" fill="black"/>
<path id="Vector_20" d="M6.71661 53.9378C5.82313 54.0417 4.1404 54.2198 2.94908 54.3088C0.238843 54.5314 -0.0143113 54.5907 0.000580101 55.0655C0.134603 57.1873 0.387757 60.2291 0.447323 60.4962C0.551563 60.8819 0.715368 60.8968 1.78755 60.7039C2.18962 60.6297 4.02126 60.4813 5.8678 60.3923C7.71434 60.2884 9.26304 60.1697 9.30772 60.1104C9.45663 59.9472 9.27794 58.6414 9.08435 58.5672C8.87587 58.493 5.55508 58.6711 2.68104 58.9085C1.31103 59.0272 0.715368 59.0272 0.581346 58.9085C0.447323 58.7898 0.387757 58.3743 0.402649 57.5286L0.432431 56.3267L1.32592 56.1338C1.81733 56.03 2.69593 55.9409 3.2618 55.9409C4.57225 55.9261 8.56315 55.4661 8.8163 55.3029C9.00989 55.1694 9.05456 54.6055 8.90565 54.0417C8.80141 53.6708 8.89076 53.6856 6.71661 53.9378Z" fill="black"/>
<path id="Vector_21" d="M95.2757 65.393C95.231 65.5414 95.1268 65.7788 95.0523 65.9123C94.9779 66.0607 94.9183 66.2536 94.9183 66.3426C94.9183 66.4168 94.7545 66.8619 94.546 67.3071C94.3375 67.7522 94.1737 68.1528 94.1737 68.1973C94.1737 68.2419 94.0844 68.4941 93.9652 68.7463C93.31 70.2301 93.2653 71.0165 93.8163 71.5655C94.2631 72.0107 94.9779 72.1887 95.6778 72.0403C96.7053 71.8178 98.4476 70.4972 99.0283 69.5031C99.2964 69.0579 99.5197 68.8502 99.7282 68.8502C100.026 68.8502 102.334 69.6218 102.677 69.8147C102.945 69.9927 102.811 70.5269 102.334 71.1352C101.664 71.9662 101.515 72.07 100.607 72.2777C100.175 72.3816 99.7878 72.5003 99.758 72.5597C99.7133 72.619 100.086 72.9751 100.577 73.3461C101.59 74.1325 101.441 74.2363 102.215 72.2629C102.483 71.5655 102.796 70.7643 102.93 70.4824C103.213 69.8443 103.704 68.5238 103.704 68.3902C103.704 68.3309 103.526 68.2419 103.302 68.1825C103.064 68.138 101.917 67.7077 100.726 67.2626C98.7454 66.5058 98.1497 66.2536 96.2883 65.4227C95.514 65.0814 95.3799 65.0666 95.2757 65.393ZM96.0798 67.2477C96.467 67.4258 97.3158 67.767 97.9561 68.0341C98.6114 68.2864 99.1624 68.5683 99.1921 68.6425C99.2815 68.9244 98.6263 69.5921 97.8817 69.963C97.018 70.4082 96.2138 70.4379 95.3204 70.0521C94.2929 69.6069 94.1142 69.0876 94.5609 67.8264C94.9332 66.7432 94.9779 66.7284 96.0798 67.2477Z" fill="black"/>
<path id="Vector_22" d="M7.9969 66.6246C7.80331 66.6988 7.65439 66.862 7.65439 66.9956C7.65439 67.2923 8.05646 68.2568 8.17559 68.2568C8.23516 68.2568 8.69679 68.1529 9.2031 68.0045C10.5284 67.6633 11.5708 67.9303 11.8538 68.7167C11.9729 69.0283 11.8538 69.1767 11.1092 69.6515C10.7667 69.8741 10.0966 70.3341 9.62006 70.6753C7.69907 72.1146 4.48252 72.8268 3.75284 71.9959C3.05294 71.2095 3.38055 70.3934 4.66122 69.7851C5.19731 69.5328 5.5547 69.2806 5.5547 69.1322C5.56959 68.7316 5.13774 67.8116 4.92926 67.8116C4.60165 67.8116 3.54436 68.8058 3.27631 69.3548C2.57642 70.8237 3.44012 72.901 5.04839 73.6726C6.18014 74.1919 8.65212 73.7319 9.62006 72.7971C9.903 72.5301 10.4242 71.7585 10.7667 71.0908C11.1092 70.4231 11.5857 69.7406 11.8389 69.5625C12.0771 69.3844 12.2707 69.1619 12.2707 69.058C12.2707 68.9541 12.0027 68.5239 11.6602 68.1084C10.7518 66.9659 8.92016 66.224 7.9969 66.6246Z" fill="black"/>
<path id="Vector_23" d="M26.9989 79.9185C26.2543 80.052 25.0332 80.9126 24.6014 81.61C23.8419 82.8564 23.7228 83.6725 23.6036 88.4354C23.5441 90.8391 23.5143 92.8422 23.5292 92.8719C23.6483 93.0203 31.3025 92.9164 31.8833 92.7532C32.8363 92.4861 33.2682 91.8778 33.2682 90.7946C33.2682 89.1031 32.4194 88.109 29.8878 86.8329C28.9646 86.3729 28.2051 85.9278 28.2051 85.8239C28.2051 85.7349 28.488 85.5272 28.8305 85.3788C30.8707 84.4589 32.0769 83.1828 32.0769 81.9068C32.0769 81.0758 31.6301 80.5714 30.5728 80.2301C29.858 79.9927 27.6839 79.7998 26.9989 79.9185ZM28.7263 80.4527C29.1879 80.6604 29.3219 81.1055 29.2922 82.2925C29.2624 83.7912 28.3987 85.1266 27.2669 85.4382C26.2543 85.7201 26.2245 85.6607 26.299 83.6279C26.3586 81.9958 26.3883 81.7732 26.7606 81.2094C27.3563 80.2746 27.8924 80.0669 28.7263 80.4527ZM28.1306 86.6994C30.007 87.9754 30.8111 90.7204 29.6645 91.9371C29.2624 92.3823 28.3093 92.6197 27.1627 92.5603L26.1947 92.5158L26.2543 89.3999C26.2841 87.5155 26.3586 86.2394 26.4479 86.1949C26.6713 86.0614 27.6094 86.3433 28.1306 86.6994Z" fill="black"/>
<path id="Vector_24" d="M66.0294 80.5126C63.9297 82.1002 62.6342 84.8897 62.7831 87.5457C62.8873 89.2075 63.483 90.1275 65.3593 91.4777C65.6869 91.7151 66.3124 92.2493 66.7442 92.6499L67.5335 93.377L68.0249 93.1544C68.8439 92.7538 70.3181 91.2848 70.8542 90.3055C71.6882 88.8366 72.0456 87.516 72.0456 85.9877C72.0604 83.9253 71.5839 83.1389 69.38 81.5067C68.7992 81.0912 68.144 80.5422 67.9057 80.29C67.6526 80.0378 67.3548 79.83 67.2058 79.83C67.0718 79.83 66.5357 80.1416 66.0294 80.5126ZM66.9676 83.124C68.4567 84.4594 69.3502 85.409 69.6629 86.0322C70.0352 86.7593 70.3479 88.0947 70.3479 88.9256C70.3479 89.8159 69.9012 91.0623 69.5438 91.1958C69.3055 91.2848 67.2654 89.712 66.2826 88.6882C65.1061 87.4567 64.5403 86.0174 64.5403 84.2072C64.5403 83.0498 64.9572 81.9073 65.3593 81.9073C65.4933 81.9073 66.223 82.4563 66.9676 83.124Z" fill="black"/>
<path id="Vector_25" d="M77.5705 80.2306C75.6495 80.928 74.5326 82.6195 74.2199 85.2903C74.071 86.6257 74.205 92.4125 74.3986 92.7834C74.5177 93.006 74.7113 93.0357 75.7537 93.006L76.9748 92.9615V90.2165V87.4863L77.9874 86.9225C81.07 85.2458 82.7676 83.4801 82.7378 81.9667C82.7229 80.6758 81.8741 80.1416 79.6553 80.0378C78.6129 79.9784 78.1512 80.0229 77.5705 80.2306ZM79.3426 80.5868C79.8042 80.7945 80.0276 81.4177 80.0276 82.4118C80.0276 83.4059 79.8042 84.1478 79.2681 85.0233C78.8363 85.7206 77.4216 86.9522 77.0493 86.9522C76.9004 86.9522 76.8855 86.4625 76.9302 84.682C76.9897 82.6195 77.0344 82.3525 77.3918 81.5957C77.913 80.5126 78.5086 80.2158 79.3426 80.5868Z" fill="black"/>
<path id="Vector_26" d="M35.4572 84.2366C35.5019 86.5068 35.4572 89.326 35.3827 90.513C35.3083 91.7 35.2785 92.7387 35.3083 92.8425C35.3976 93.0651 40.1182 93.0948 42.0392 92.887C44.0049 92.6645 44.7346 92.0116 44.7346 90.4388C44.7197 88.6879 41.5925 86.0913 38.9716 85.661L38.2568 85.5423L38.1674 84.5779C38.1079 84.0437 38.0632 83.0347 38.0483 82.3374C38.0483 81.6251 37.9887 80.8387 37.9441 80.5865L37.8547 80.1265H36.6187H35.3976L35.4572 84.2366ZM39.4481 86.6106C40.3118 87.1745 41.1308 88.1686 41.4287 89.0144C41.5329 89.2963 41.6074 89.9195 41.6074 90.424C41.6074 92.0858 40.8926 92.6645 39.0014 92.5606L38.1079 92.5161L38.0781 89.6227C38.0632 88.0351 38.0781 86.581 38.1228 86.3881C38.2121 85.9281 38.5099 85.9726 39.4481 86.6106Z" fill="black"/>
<path id="Vector_27" d="M45.9851 80.4527C45.9255 80.6456 45.8809 83.4499 45.8809 86.6846C45.8809 91.2843 45.9106 92.6197 46.0596 92.7978C46.2085 92.9758 46.551 93.0352 47.4147 93.0352C48.0699 93.0352 48.606 92.9758 48.6358 92.8868C48.6656 92.7978 48.6209 91.8185 48.5613 90.6908C48.4869 89.5779 48.4571 86.7439 48.4869 84.3847L48.5464 80.1263H47.3104C46.1787 80.1263 46.0893 80.1559 45.9851 80.4527Z" fill="black"/>
<path id="Vector_28" d="M51.2422 81.3439C51.3762 82.7535 51.3911 85.0682 51.2869 89.6976L51.2124 92.9619H54.8608C56.8711 92.9619 58.8219 92.9026 59.2091 92.8432C60.1026 92.6948 60.7131 92.1162 60.9514 91.1814C61.3088 89.7866 60.5046 88.4809 58.4794 87.2048C57.0796 86.3146 56.1563 85.914 55.0097 85.7062L54.0418 85.5282L53.9375 83.2283C53.878 81.9671 53.8631 80.8543 53.9077 80.7356C53.9524 80.5723 54.1907 80.5427 54.9799 80.6169C56.7073 80.7504 57.3923 81.1807 58.2858 82.6496C58.8964 83.6734 59.1793 83.9108 59.1793 83.4657C59.1793 83.3322 59.4176 82.5458 59.7005 81.7149C59.9834 80.8839 60.2217 80.1866 60.2217 80.1717C60.2217 80.142 58.1667 80.1272 55.6649 80.1272H51.123L51.2422 81.3439ZM55.382 86.4184C56.2308 86.8042 57.2732 87.8577 57.6157 88.6738C57.8986 89.3712 57.9135 91.1369 57.6157 91.6859C57.3179 92.2794 56.4393 92.591 55.0842 92.591C54.4885 92.591 53.9524 92.5316 53.9077 92.4723C53.878 92.4129 53.878 90.944 53.9226 89.2079C54.0269 85.6024 53.9524 85.7507 55.382 86.4184Z" fill="black"/>
<path id="Vector_29" d="M15.6516 85.2015C15.3538 85.6318 14.7432 86.5072 14.2816 87.1452C13.403 88.4213 13.3881 88.4361 14.1178 89.3412C14.2965 89.5638 14.8326 90.3205 15.3091 91.0179C16.1281 92.1901 16.2473 92.2939 16.694 92.2939H17.2003L16.694 91.3592C16.4111 90.8547 15.9345 90.0386 15.6367 89.5489C15.3389 89.0593 15.1006 88.54 15.1006 88.4064C15.1006 88.2729 15.5325 87.3975 16.0686 86.4775C16.6047 85.5576 17.0365 84.7118 17.0365 84.608C17.0365 84.5041 16.8578 84.4299 16.6047 84.4299C16.2622 84.4299 16.0835 84.5783 15.6516 85.2015Z" fill="black"/>
<path id="Vector_30" d="M18.4804 86.1808C17.8103 87.1304 17.1998 88.0503 17.1402 88.1987C17.0211 88.4955 17.3487 89.0148 19.0165 91.285C19.6271 92.1307 19.8207 92.2939 20.1781 92.2939C20.4163 92.2939 20.6099 92.2346 20.6099 92.1604C20.6099 92.1011 20.1334 91.2256 19.5526 90.2167L18.4953 88.4064L18.8229 87.7832C19.0165 87.4568 19.4931 86.6259 19.8802 85.973C20.2823 85.3053 20.6099 84.6821 20.6099 84.5931C20.6099 84.5041 20.4163 84.4299 20.1781 84.4299C19.776 84.4299 19.5973 84.6228 18.4804 86.1808Z" fill="black"/>
<path id="Vector_31" d="M85.0898 84.4892C85.0898 84.5189 85.477 85.2015 85.9535 86.0175C86.445 86.8188 86.9364 87.6794 87.0704 87.9316L87.3087 88.3916L86.2067 90.2908C85.5962 91.3295 85.0898 92.2049 85.0898 92.2346C85.0898 92.2643 85.3132 92.2939 85.5813 92.2939C86.1322 92.2939 86.1025 92.3236 87.681 90.0237C88.217 89.2225 88.6638 88.4954 88.6638 88.4064C88.6638 88.3174 88.083 87.3826 87.3831 86.344C86.162 84.5189 86.0727 84.4299 85.5962 84.4299C85.3132 84.4299 85.0898 84.4596 85.0898 84.4892Z" fill="black"/>
<path id="Vector_32" d="M88.6641 84.608C88.6641 84.7118 88.7981 84.9641 88.9619 85.1718C89.1257 85.3795 89.2597 85.5873 89.2597 85.6466C89.2597 85.706 89.6022 86.344 90.0192 87.0414L90.7935 88.3322L90.5106 88.8664C90.3468 89.1632 89.8703 89.9941 89.4533 90.736C89.0215 91.463 88.6641 92.1159 88.6641 92.1752C88.6641 92.2494 88.8577 92.2939 89.0959 92.2939C89.498 92.2939 89.6767 92.1011 90.8382 90.4689C91.553 89.4748 92.1635 88.5548 92.1933 88.4361C92.2231 88.3174 91.6423 87.3678 90.8978 86.3143C89.6916 84.6228 89.498 84.4299 89.1108 84.4299C88.8428 84.4299 88.6641 84.5041 88.6641 84.608Z" fill="black"/>
</g>
</g>
</g>
</svg>
